<?xml version="1.0" encoding="UTF-8" standalone="no"?>
<svg width="39px" height="48px" viewBox="0 0 39 48" version="1.1" xmlns="http://www.w3.org/2000/svg" xmlns:xlink="http://www.w3.org/1999/xlink">
    <!-- Generator: Sketch 40.3 (33839) - http://www.bohemiancoding.com/sketch -->
    <title>pause</title>
    <desc>Created with Sketch.</desc>
    <defs></defs>
    <g id="Page-1" stroke="none" stroke-width="1" fill="none" fill-rule="evenodd">
        <g id="pause" fill="#FFFFFF">
            <g id="Capa_1">
                <g id="Group">
                    <path d="M13.991,40.976 C13.991,44.638 11.022,47.607 7.36,47.607 L7.36,47.607 C3.698,47.607 0.729,44.638 0.729,40.976 L0.729,6.631 C0.729,2.969 3.698,0 7.36,0 L7.36,0 C11.022,0 13.991,2.969 13.991,6.631 L13.991,40.976 L13.991,40.976 Z" id="Shape"></path>
                    <path d="M38.877,40.976 C38.877,44.638 35.908,47.607 32.246,47.607 L32.246,47.607 C28.584,47.607 25.615,44.638 25.615,40.976 L25.615,6.631 C25.616,2.969 28.585,0 32.246,0 L32.246,0 C35.908,0 38.877,2.969 38.877,6.631 L38.877,40.976 L38.877,40.976 Z" id="Shape"></path>
                </g>
            </g>
        </g>
    </g>
</svg>