<?xml version="1.0" encoding="UTF-8" standalone="no"?>
<svg width="61px" height="61px" viewBox="0 0 61 61" version="1.1" xmlns="http://www.w3.org/2000/svg" xmlns:xlink="http://www.w3.org/1999/xlink">
    <!-- Generator: Sketch 40.3 (33839) - http://www.bohemiancoding.com/sketch -->
    <title>plus</title>
    <desc>Created with Sketch.</desc>
    <defs></defs>
    <g id="Page-1" stroke="none" stroke-width="1" fill="none" fill-rule="evenodd">
        <g id="plus" fill="#FFFFFF">
            <g id="Capa_1">
                <path d="M35.845,23.178 L35.844,5.91 C35.845,2.646 33.198,0 29.934,0 C26.671,0 24.025,2.646 24.025,5.91 L24.025,23.179 L5.91,23.178 C2.646,23.179 0,25.825 0,29.088 C0.002,32.352 2.646,34.997 5.91,34.997 L24.025,34.997 L24.025,54.454 C24.025,57.721 26.671,60.364 29.935,60.364 C33.199,60.364 35.844,57.718 35.845,54.456 L35.845,34.997 L54.456,34.997 C57.718,34.997 60.364,32.352 60.364,29.09 C60.367,25.824 57.718,23.178 54.454,23.18 L35.845,23.178 Z" id="Shape"></path>
            </g>
        </g>
    </g>
</svg>