<?xml version="1.0" encoding="UTF-8" standalone="no"?>
<svg width="106px" height="106px" viewBox="0 0 106 106" version="1.1" xmlns="http://www.w3.org/2000/svg" xmlns:xlink="http://www.w3.org/1999/xlink">
    <!-- Generator: Sketch 40.3 (33839) - http://www.bohemiancoding.com/sketch -->
    <title>Group 2</title>
    <desc>Created with Sketch.</desc>
    <defs>
        <ellipse id="path-1" cx="50" cy="50" rx="50" ry="50"></ellipse>
    </defs>
    <g id="Page-1" stroke="none" stroke-width="1" fill="none" fill-rule="evenodd">
        <g id="Main-screen" transform="translate(-867.000000, -431.000000)">
            <g id="Group-2" transform="translate(870.000000, 434.000000)">
                <mask id="mask-2" fill="white">
                    <use xlink:href="#path-1"></use>
                </mask>
                <use id="Oval-2" stroke="#FFFFFF" stroke-width="6" xlink:href="#path-1"></use>
                <g id="Group" mask="url(#mask-2)">
                    <g transform="translate(-54.000000, 16.136001)" id="sinus">
                        <g transform="translate(8.000000, 6.318769)">
                            <path d="M0.224654278,27.2375393 C0.224654278,27.2375393 1.90041521,20.5542921 2.79418958,17.2614055 C3.54318648,14.5019155 4.22661542,11.6662093 5.13392617,9.06808051 C5.84693954,7.02632822 6.5911874,4.96615576 7.55722822,3.30240772 C8.19344091,2.20670017 8.91416748,1.19364085 9.72984077,0.609231393 C10.0706319,0.365062531 10.4513787,0.243785428 10.8161482,0.305775127 C11.566089,0.433222443 12.328188,0.891541537 12.9469814,1.67132915 C14.4536666,3.57001709 15.46241,6.56008898 16.4774794,9.33360506 C17.6961752,12.6634959 18.5398743,16.4003478 19.5066053,19.9925119 C21.0085757,25.5735157 22.3365544,31.3042441 23.8100511,36.9102155 C24.5088996,39.5690131 25.1564181,42.2804789 25.9617751,44.8380151 C26.5034228,46.5580972 27.1046095,48.2206477 27.7583603,49.8071131 C28.2289619,50.9491273 28.6535996,52.21677 29.2833675,53.069271 C30.1432814,54.233312 31.1572744,55.5020751 32.2289302,55.4210602 C33.4244223,55.3306835 34.4874187,53.7505797 35.3833985,52.3106283 C36.5872346,50.3759146 37.3226402,47.6456133 38.1827302,45.179404 C38.7247823,43.6251321 39.2068909,42.0020537 39.6659558,40.3620321 C40.3083116,38.0671978 40.845425,35.6801194 41.4416501,33.3446013 C41.8910227,31.5843292 43.3908603,25.9922561 43.3908603,25.9922561" id="path3102" stroke="#FFFFFF" stroke-width="6"></path>
                            <path d="M128.66771,27.3627667 C128.66771,27.3627667 130.343471,20.6795195 131.237245,17.3866329 C131.986242,14.6271428 132.669671,11.7914366 133.576981,9.19330789 C134.289995,7.15155561 135.034243,5.09138314 136.000284,3.42763511 C136.636496,2.33192755 137.357223,1.31886823 138.172896,0.734458774 C138.513687,0.490289913 138.894434,0.369012809 139.259204,0.431002508 C140.009144,0.558449824 140.771243,1.01676892 141.390037,1.79655654 C142.896722,3.69524447 143.905465,6.68531636 144.920535,9.45883244 C146.13923,12.7887233 146.98293,16.5255752 147.949661,20.1177393 C149.451631,25.6987431 150.77961,31.4294715 152.253106,37.0354429 C152.951955,39.6942405 153.599473,42.4057063 154.40483,44.9632425 C154.946478,46.6833246 155.547665,48.345875 156.201416,49.9323404 C156.672017,51.0743547 157.096655,52.3419974 157.726423,53.1944984 C158.586337,54.3585393 159.60033,55.6273025 160.671985,55.5462876 C161.867478,55.4559109 162.930474,53.875807 163.826454,52.4358557 C165.03029,50.501142 165.765696,47.7708406 166.625785,45.3046313 C167.167838,43.7503595 167.649946,42.1272811 168.109011,40.4872595 C168.751367,38.1924252 169.28848,35.8053468 169.884705,33.4698287 C170.334078,31.7095566 171.460634,27.3746182 171.460634,27.3746182" id="path3102" stroke="#FFFFFF" stroke-width="6"></path>
                            <path d="M43.086987,27.2440217 C43.086987,27.2440217 44.7627475,20.5607745 45.6565218,17.2678879 C46.4055187,14.5083979 47.0889477,11.6726917 47.9962584,9.07456292 C48.7092718,7.03281063 49.4535197,4.97263817 50.4195605,3.30889013 C51.0557732,2.21318258 51.7764997,1.20012325 52.592173,0.615713802 C52.9329642,0.37154494 53.3137109,0.250267836 53.6784804,0.312257536 C54.4284212,0.439704852 55.1905203,0.898023946 55.8093137,1.67781156 C57.3159989,3.57649949 58.3247423,6.56657139 59.3398117,9.34008747 C60.5585074,12.6699783 61.4022065,16.4068302 62.3689375,19.9989943 C63.8709079,25.5799981 65.1988867,31.3107265 66.6723833,36.9166979 C67.3712318,39.5754955 68.0187503,42.2869613 68.8241074,44.8444976 C69.365755,46.5645796 69.9669417,48.2271301 70.6206926,49.8135955 C71.0912941,50.9556097 71.5159318,52.2232524 72.1456997,53.0757534 C73.0056137,54.2397944 74.0196066,55.5085575 75.0912624,55.4275426 C76.2867545,55.337166 77.3497509,53.7570621 78.2457307,52.3171107 C79.4495668,50.382397 80.1849725,47.6520957 81.0450624,45.1858864 C81.5871146,43.6316145 82.0692231,42.0085361 82.528288,40.3685145 C83.1706438,38.0736802 83.7077573,35.6866018 84.3039824,33.3510837 C84.7533549,31.5908116 85.9519494,26.6049369 85.9519494,26.6049369" id="path3102-3" stroke="#FFFFFF" stroke-width="6"></path>
                            <path d="M85.8126225,27.2565201 C85.8126225,27.2565201 87.4883834,20.5732729 88.3821578,17.2803863 C89.1311547,14.5208975 89.8145836,11.6851892 90.7218948,9.08706048 C91.4349082,7.04530902 92.1791561,4.98513698 93.1451969,3.32138728 C93.7814096,2.2256818 94.5021362,1.21262248 95.3178094,0.628213023 C95.6586006,0.384044161 96.0393473,0.262767058 96.4041169,0.324756757 C97.1540576,0.452204073 97.9161567,0.910523167 98.5349501,1.69031078 C100.041635,3.5889983 101.050379,6.57907186 102.065448,9.35258835 C103.284144,12.682478 104.127843,16.4193286 105.094574,20.0114927 C106.596544,25.5924965 107.924523,31.3232249 109.39802,36.9291963 C110.096868,39.5879939 110.744387,42.2994597 111.549744,44.8569959 C112.091391,46.577078 112.692578,48.2396285 113.346329,49.8260939 C113.816931,50.9681081 114.241568,52.2357508 114.871336,53.0882518 C115.73125,54.2522928 116.745243,55.5210559 117.816899,55.440041 C119.012391,55.3496643 120.075387,53.7695605 120.971367,52.3296091 C122.175203,50.3948954 122.910609,47.6645941 123.770699,45.1983848 C124.312751,43.6441129 124.79486,42.0210345 125.253924,40.3810129 C125.89628,38.0861786 126.433394,35.6991002 127.029619,33.3635821 C127.478991,31.60331 128.773121,26.8947768 128.773121,26.8947768" id="path3102-5" stroke="#FFFFFF" stroke-width="6"></path>
                        </g>
                    </g>
                </g>
            </g>
        </g>
    </g>
</svg>